<svg width="210" height="50" viewBox="0 0 1312 244" fill="none" xmlns="http://www.w3.org/2000/svg">
<g clip-path="url(#clip0_1208_7783)">
<path d="M331.103 191.413C317.325 191.413 305.55 186.59 295.78 176.942C286.01 167.295 281 155.718 281 142.212V66.7207C281 64.3089 282.002 62.1382 283.756 60.4499C285.76 58.7616 288.014 57.7969 290.52 57.7969C293.275 57.7969 295.53 58.7616 297.534 60.6911C299.538 62.6206 300.54 64.7912 300.54 67.2031V104.346C310.561 96.8688 320.581 93.251 331.103 93.251C344.881 93.251 356.656 98.0747 366.426 107.481C376.196 117.128 381.206 128.464 381.206 141.97C381.206 155.477 376.196 167.054 366.426 176.701C356.656 186.59 344.881 191.413 331.103 191.413ZM331.354 112.063C322.836 112.063 315.571 114.958 309.559 120.987C303.546 127.017 300.54 134.011 300.54 142.453C300.54 150.894 303.546 158.13 309.559 163.918C315.571 169.707 322.836 172.842 331.354 172.842C339.871 172.842 347.386 169.948 353.148 163.918C358.91 157.889 362.167 150.894 362.167 142.453C362.167 134.011 359.161 127.017 353.148 120.987C347.136 114.958 339.871 112.063 331.354 112.063Z" fill="white"/>
<path d="M437.822 191.653C424.043 191.653 412.269 186.829 402.499 177.423C392.729 168.016 387.719 156.681 387.719 143.416C387.719 130.15 392.729 118.574 402.499 109.167C412.269 99.7612 424.043 94.9375 437.822 94.9375C451.6 94.9375 463.625 99.7612 473.395 109.167C483.165 118.574 488.175 129.909 488.175 143.416C488.175 156.681 483.165 168.016 473.395 177.423C463.625 186.829 451.851 191.653 437.822 191.653ZM438.323 113.75C429.805 113.75 422.54 116.644 416.528 122.433C410.516 128.221 407.509 135.215 407.509 143.416C407.509 151.616 410.516 158.61 416.528 164.399C422.54 170.187 429.805 173.081 438.323 173.081C446.84 173.081 454.356 170.187 460.118 164.399C465.879 158.61 469.136 151.616 469.136 143.416C469.136 135.215 466.13 128.221 460.118 122.433C454.105 116.644 446.84 113.75 438.323 113.75Z" fill="white"/>
<path d="M553.306 191.653C539.528 191.653 527.754 186.829 517.983 177.423C508.213 168.016 503.203 156.681 503.203 143.416C503.203 130.15 508.213 118.574 517.983 109.167C527.754 99.7612 539.528 94.9375 553.306 94.9375C567.084 94.9375 579.109 99.7612 588.879 109.167C598.649 118.574 603.66 129.909 603.66 143.416C603.66 156.681 598.649 168.016 588.879 177.423C579.109 186.829 567.335 191.653 553.306 191.653ZM553.807 113.75C545.29 113.75 538.025 116.644 532.012 122.433C526 128.221 522.994 135.215 522.994 143.416C522.994 151.616 526 158.61 532.012 164.399C538.025 170.187 545.29 173.081 553.807 173.081C562.325 173.081 569.84 170.187 575.602 164.399C581.614 158.61 584.62 151.616 584.62 143.416C584.62 135.215 581.614 128.221 575.602 122.433C569.59 116.644 562.325 113.75 553.807 113.75Z" fill="white"/>
<path d="M675.056 191.895C669.545 192.136 665.537 192.136 662.781 192.136C649.253 192.136 637.73 187.554 627.96 178.389C618.189 169.224 613.43 157.888 613.43 144.382V81.6738C613.43 79.262 614.432 77.0913 616.185 75.403C618.189 73.7147 620.194 72.75 622.699 72.75C627.709 72.75 630.966 75.6442 632.218 81.915C632.719 84.3269 632.719 88.9094 632.469 95.4214H674.555C677.311 95.4214 679.566 96.3861 681.069 98.3156C682.572 100.245 683.323 102.416 683.323 104.828C683.323 107.481 682.321 109.651 680.317 111.581C678.313 113.51 676.058 114.475 673.553 114.475H631.968V143.658C631.968 151.859 634.974 159.094 640.986 164.883C646.999 170.671 654.264 173.565 662.531 173.324C663.533 173.324 665.286 173.324 668.292 173.324C670.798 173.324 672.802 173.324 674.305 173.324C676.81 173.324 679.315 174.289 681.069 176.218C683.073 178.148 683.824 180.318 683.824 182.73C683.824 185.383 682.822 187.554 681.069 189.242C679.816 190.931 677.562 191.895 675.056 191.895Z" fill="white"/>
<path d="M753.219 113.269C751.966 113.269 749.962 113.269 747.207 113.269C744.701 113.269 742.697 113.269 741.194 113.269C732.927 113.269 725.662 116.164 719.9 121.952C714.139 127.741 711.132 134.735 711.132 142.935C711.132 150.894 714.139 157.647 719.9 163.436C725.913 169.224 732.927 172.119 741.194 172.119C742.447 172.119 744.2 172.119 747.207 172.119C749.712 172.119 751.716 172.119 753.219 172.119C755.724 172.119 757.979 173.083 759.983 174.772C761.987 176.701 762.989 178.872 762.989 181.284C762.989 183.937 761.987 186.107 760.233 187.796C758.48 189.484 756.225 190.449 753.72 190.449C750.213 190.69 746.204 190.931 741.445 190.931C727.917 190.931 716.393 186.107 706.623 176.701C697.103 167.295 692.344 155.959 692.344 142.453C692.344 128.946 697.103 117.852 706.623 108.446C716.143 99.0395 727.666 94.457 741.445 94.457H753.219C755.724 94.457 758.229 95.4218 759.983 97.1101C761.987 99.0395 762.738 101.21 762.738 103.622C762.738 106.034 761.736 108.446 759.983 110.134C757.979 112.305 755.724 113.269 753.219 113.269Z" fill="white"/>
<path d="M862.694 191.653C857.433 191.653 854.176 188.035 853.425 180.799C843.655 188.035 833.383 191.653 822.361 191.653C808.582 191.653 796.808 186.829 787.038 177.423C777.268 168.016 772.258 156.681 772.258 143.416C772.258 130.15 777.268 118.574 787.038 109.167C796.808 99.7612 808.582 94.9375 822.361 94.9375C836.139 94.9375 848.164 99.7612 857.934 109.167C867.704 118.574 872.714 129.909 872.714 143.416V182.729C872.714 185.382 871.712 187.552 869.708 189.241C867.704 190.688 865.449 191.653 862.694 191.653ZM822.862 113.75C814.344 113.75 807.079 116.644 801.067 122.433C795.055 128.221 792.048 135.215 792.048 143.416C792.048 151.616 795.055 158.61 801.067 164.399C807.079 170.187 814.344 173.081 822.862 173.081C831.379 173.081 838.895 170.187 844.657 164.399C850.669 158.61 853.675 151.616 853.675 143.416C853.675 135.215 850.669 128.221 844.657 122.433C838.644 116.644 831.379 113.75 822.862 113.75Z" fill="white"/>
<path d="M1056.59 192.618C1054.09 192.618 1051.83 191.653 1049.83 189.965C1047.83 188.276 1046.82 186.106 1046.82 183.694V146.31C1046.82 138.11 1043.82 130.874 1037.55 125.086C1031.29 119.297 1023.78 116.403 1015.26 116.403C1009 116.403 1002.98 118.091 997.472 121.468C991.961 124.845 988.203 129.427 985.949 135.216C984.696 138.11 984.195 140.28 984.195 141.728C984.195 146.792 984.195 153.546 984.195 161.987C984.195 171.876 984.195 178.629 984.195 182.247C984.195 184.9 983.193 187.311 981.189 189.482C979.185 191.653 976.679 192.859 973.924 192.859C971.168 192.859 968.914 191.894 966.909 190.206C964.905 188.517 963.903 186.347 963.903 183.694V146.069C963.903 145.587 963.903 144.863 963.903 143.898C963.903 142.692 963.903 141.969 963.903 141.486C963.903 140.039 963.402 137.869 962.4 135.216C960.146 129.427 956.137 124.603 950.876 120.986C945.616 117.368 939.603 115.68 932.839 115.68C924.071 115.68 916.806 118.574 910.794 124.362C904.782 130.151 901.776 137.145 901.776 145.345C901.776 145.104 901.776 157.646 901.776 182.247C901.776 184.658 900.773 186.829 898.769 188.759C896.765 190.688 894.26 191.653 891.504 191.653C888.999 191.653 886.494 190.688 884.741 189C882.736 187.311 881.734 185.141 881.734 182.729V144.863C881.734 131.598 886.745 120.262 896.765 110.856C906.786 101.45 918.811 96.8672 932.839 96.8672C949.874 96.8672 963.903 103.62 974.675 116.886C985.447 104.344 998.975 98.0731 1015.26 98.0731C1029.54 98.0731 1041.81 102.897 1051.83 112.303C1061.85 121.709 1066.86 133.045 1066.86 146.31C1066.86 146.069 1066.86 158.61 1066.86 183.453C1066.86 185.864 1066.11 188.276 1064.11 189.965C1061.85 191.653 1059.35 192.618 1056.59 192.618Z" fill="white"/>
<path d="M1128.24 193.101C1117.72 193.101 1107.7 189.483 1097.68 182.006V219.149C1097.68 221.56 1096.68 223.972 1094.67 225.902C1092.67 227.831 1090.42 228.796 1087.66 228.796C1084.9 228.796 1082.65 227.831 1080.9 226.143C1079.14 224.455 1078.14 222.284 1078.14 219.631V144.14C1078.14 130.634 1083.15 119.057 1092.92 109.41C1102.69 99.7622 1114.47 95.1797 1128.24 95.1797C1142.02 95.1797 1154.05 100.003 1163.82 109.41C1173.59 118.816 1178.6 130.634 1178.6 144.14C1178.6 157.647 1173.59 169.223 1163.82 178.63C1153.8 188.277 1142.02 193.101 1128.24 193.101ZM1128.49 113.751C1119.98 113.751 1112.71 116.645 1106.7 122.675C1100.69 128.704 1097.68 135.699 1097.68 144.14C1097.68 152.582 1100.69 159.576 1106.7 165.606C1112.71 171.635 1119.98 174.529 1128.49 174.529C1137.01 174.529 1144.53 171.635 1150.29 165.606C1156.3 159.576 1159.31 152.582 1159.31 144.14C1159.31 135.699 1156.3 128.704 1150.29 122.675C1144.28 116.645 1137.01 113.751 1128.49 113.751Z" fill="white"/>
<path d="M1247.24 95.9023C1251.75 97.5906 1254 100.244 1254 104.585C1254 106.756 1253.25 108.926 1251.49 110.615C1249.74 112.303 1247.74 113.026 1245.48 113.026C1244.23 113.026 1242.23 113.026 1239.72 113.026C1237.22 113.026 1235.21 113.026 1233.96 113.026C1225.44 113.026 1217.93 115.921 1211.91 121.95C1205.9 127.98 1202.89 134.974 1202.89 143.416V182.005C1202.89 184.417 1202.14 186.347 1200.14 187.794C1198.39 189.241 1196.38 189.964 1194.13 189.964C1191.87 189.964 1189.87 189.241 1188.11 187.794C1186.36 186.347 1185.61 184.417 1185.61 182.005V143.175C1185.61 130.392 1190.12 119.538 1198.89 110.132C1207.65 100.726 1218.68 96.1435 1231.7 95.9023H1233.71H1247.24Z" fill="white"/>
<path d="M207.523 53.9126L118.203 2.54419C112.135 -0.848064 104.854 -0.848064 98.7859 2.54419L9.70869 53.9126C3.64076 57.3049 0 63.8471 0 70.6316V173.368C0 180.395 3.64076 186.695 9.70869 190.087L98.7859 241.456C104.854 244.848 112.135 244.848 118.203 241.456L207.281 190.087C213.348 186.695 216.989 180.153 216.989 173.368V70.6316C217.232 63.8471 213.348 57.3049 207.523 53.9126Z" fill="white"/>
<path d="M61.4068 153.5L108.494 180.638C108.737 180.638 108.979 180.638 108.979 180.638L156.067 153.5C156.309 153.5 156.309 153.258 156.309 153.016V98.7397C156.309 98.4974 156.309 98.4974 156.067 98.2551L108.979 71.3594H108.737H108.494L61.4068 98.2551C61.1641 98.2551 61.1641 98.4974 61.1641 98.7397V122.001V153.016C61.1641 153.258 61.1641 153.258 61.4068 153.5Z" fill="#FB8C00"/>
<path d="M207.523 53.9126L118.203 2.54419C112.135 -0.848064 104.854 -0.848064 98.7859 2.54419L60.922 24.3515V63.3625L92.9607 44.9474C102.669 39.3744 114.563 39.3744 124.271 44.9474L171.116 72.0854C180.824 77.6584 186.65 88.0775 186.65 98.9811V153.257C186.65 164.403 180.582 174.58 171.116 180.153L124.271 207.049C119.417 209.714 114.077 211.168 108.737 211.168C103.398 211.168 98.0578 209.714 93.2034 207.049L46.1163 179.911C36.4076 174.338 30.5824 163.919 30.5824 153.015V122V98.7388V41.7974L9.70869 53.9126C3.64076 57.3049 0 63.8471 0 70.6316V173.368C0 180.395 3.64076 186.695 9.70869 190.087L98.7859 241.456C104.854 244.848 112.135 244.848 118.203 241.456L207.281 190.087C213.348 186.695 216.989 180.153 216.989 173.368V70.6316C217.232 63.8471 213.348 57.3049 207.523 53.9126Z" fill="#FB8C00"/>
</g>
<defs>
<clipPath id="clip0_1208_7783">
<rect width="1312" height="244" fill="white"/>
</clipPath>
</defs>
</svg>
