<svg width="172" height="36" viewBox="0 0 172 36" fill="none" xmlns="http://www.w3.org/2000/svg">
<path fill-rule="evenodd" clip-rule="evenodd" d="M30.0005 8.42021L15.5239 16.8404L15.5239 0L30.0005 8.42021ZM0.00954212 8.42022L14.4862 16.8404L14.4862 2.71956e-06L0.00954212 8.42022ZM14.4785 35.9967L0.00188351 27.5765L14.4785 19.1562V35.9967ZM30.0007 27.5765L15.524 35.9967L15.524 19.1562L30.0007 27.5765ZM0 26.4167L14.4767 17.9965L0 9.57629V26.4167Z" fill="#FFA726"/>
<path d="M47.0017 31.9C44.8951 31.9 43.2817 31.3 42.1617 30.1C41.0684 28.9 40.5217 27.2067 40.5217 25.02V9.98C40.5217 7.79333 41.0684 6.1 42.1617 4.9C43.2817 3.7 44.8951 3.1 47.0017 3.1C49.1084 3.1 50.7084 3.7 51.8017 4.9C52.9217 6.1 53.4817 7.79333 53.4817 9.98V12.94H49.3217V9.7C49.3217 7.96667 48.5884 7.1 47.1217 7.1C45.6551 7.1 44.9217 7.96667 44.9217 9.7V25.34C44.9217 27.0467 45.6551 27.9 47.1217 27.9C48.5884 27.9 49.3217 27.0467 49.3217 25.34V21.06H53.4817V25.02C53.4817 27.2067 52.9217 28.9 51.8017 30.1C50.7084 31.3 49.1084 31.9 47.0017 31.9ZM62.9523 31.9C60.7923 31.9 59.139 31.2867 57.9923 30.06C56.8457 28.8333 56.2723 27.1 56.2723 24.86V10.14C56.2723 7.9 56.8457 6.16667 57.9923 4.94C59.139 3.71333 60.7923 3.1 62.9523 3.1C65.1123 3.1 66.7657 3.71333 67.9123 4.94C69.059 6.16667 69.6323 7.9 69.6323 10.14V24.86C69.6323 27.1 69.059 28.8333 67.9123 30.06C66.7657 31.2867 65.1123 31.9 62.9523 31.9ZM62.9523 27.9C64.4723 27.9 65.2323 26.98 65.2323 25.14V9.86C65.2323 8.02 64.4723 7.1 62.9523 7.1C61.4323 7.1 60.6723 8.02 60.6723 9.86V25.14C60.6723 26.98 61.4323 27.9 62.9523 27.9ZM73.008 3.5H77.408V27.5H84.648V31.5H73.008V3.5ZM87.158 3.5H91.558V27.5H98.798V31.5H87.158V3.5ZM104.864 3.5H110.824L115.384 31.5H110.984L110.184 25.94V26.02H105.184L104.384 31.5H100.304L104.864 3.5ZM109.664 22.22L107.704 8.38H107.624L105.704 22.22H109.664ZM117.919 3.5H124.559C126.826 3.5 128.479 4.03333 129.519 5.1C130.559 6.14 131.079 7.75333 131.079 9.94V11.06C131.079 12.5 130.839 13.6733 130.359 14.58C129.906 15.4867 129.199 16.14 128.239 16.54V16.62C130.426 17.3667 131.519 19.3133 131.519 22.46V24.86C131.519 27.02 130.946 28.6733 129.799 29.82C128.679 30.94 127.026 31.5 124.839 31.5H117.919V3.5ZM124.039 14.9C124.919 14.9 125.572 14.6733 125.999 14.22C126.452 13.7667 126.679 13.0067 126.679 11.94V10.38C126.679 9.36667 126.492 8.63333 126.119 8.18C125.772 7.72667 125.212 7.5 124.439 7.5H122.319V14.9H124.039ZM124.839 27.5C125.612 27.5 126.186 27.3 126.559 26.9C126.932 26.4733 127.119 25.7533 127.119 24.74V22.3C127.119 21.02 126.892 20.14 126.439 19.66C126.012 19.1533 125.292 18.9 124.279 18.9H122.319V27.5H124.839ZM134.491 3.5H138.891V31.5H134.491V3.5ZM142.586 3.5H154.226V7.5H146.986V15.3H152.666V19.3H146.986V31.5H142.586V3.5ZM160.776 19.58L155.456 3.5H160.136L163.136 13.78H163.216L166.216 3.5H170.496L165.176 19.58V31.5H160.776V19.58Z" fill="url(#paint0_linear_12166_286574)"/>
<defs>
<linearGradient id="paint0_linear_12166_286574" x1="39.5008" y1="6.69887" x2="128.942" y2="-40.2235" gradientUnits="userSpaceOnUse">
<stop offset="0.0389264" stop-color="white"/>
<stop offset="1" stop-color="white"/>
</linearGradient>
</defs>
</svg>
